# xmcd CD database file
#
# Track frame offsets:
#	150
#	16272
#	28407
#	43657
#	74422
#	90812
#	109572
#	124277
#	140620
#	158932
#	176062
#	193030
#	218660
#	241662
#
# Disc length: 3558 seconds
#
# Revision: 0
# Processed by: cddbd v1.5.2PL0 Copyright (c) Steve Scherf et al.
# Submitted via: CDex 1.51
#
DISCID=be0de40e
DTITLE=Ewa Bem - Zyj Kolorowo
DYEAR=1900
DGENRE=Jazz
TTITLE0=Dzien dobry Mr Blues
TTITLE1=Zyj kolorowo
TTITLE2=Milosc jest jak niedziela
TTITLE3=Bez tego i owego
TTITLE4=Moje serce to jest muzyk
TTITLE5=Wyszlam za maz zaraz wracam
TTITLE6=Z Toba bez Ciebie
TTITLE7=I co z tego dzis masz
TTITLE8=Kobieta to jest sekret
TTITLE9=Pomidory
TTITLE10=Milosc to jest wielki skarb
TTITLE11=Prywatne zycie
TTITLE12=Pozwol wreszcie mi byc soba
TTITLE13=Gram o wszystko
EXTD=
EXTT0=
EXTT1=
EXTT2=
EXTT3=
EXTT4=
EXTT5=
EXTT6=
EXTT7=
EXTT8=
EXTT9=
EXTT10=
EXTT11=
EXTT12=
EXTT13=
PLAYORDER=
